<svg width="79" height="57" viewBox="0 0 79 57" fill="none" xmlns="http://www.w3.org/2000/svg">
<path d="M12.0804 10.1875C12.0804 10.1875 5.99083 15.7187 5.66167 21.5625V22.6562C5.925 27.375 9.6775 30.1562 9.6775 30.1562C15.7013 35.75 30.2833 42.7812 33.7067 44.375C33.7067 44.375 33.9042 44.4687 34.0358 44.3437L34.1017 44.2188V44.0937C24.7533 24.75 12.0804 10.1875 12.0804 10.1875ZM31.7646 49.125C31.6987 48.875 31.4354 48.875 31.4354 48.875L7.14292 49.6875C9.77625 54.1562 14.22 57.5937 18.8612 56.5625C22.0212 55.7812 29.2629 51 31.6329 49.375C31.8304 49.2187 31.7646 49.0937 31.7646 49.0937V49.125ZM32.0279 46.6875C21.3629 39.8437 0.69125 29.375 0.69125 29.375C0.1975 30.8125 0.0329167 32.1875 0 33.4375V33.6562C0 37 1.31667 39.3437 1.31667 39.3437C3.95 44.625 9.01917 46.2187 9.01917 46.2187C11.3233 47.1562 13.6275 47.1875 13.6275 47.1875C14.0225 47.25 28.1108 47.1875 31.8633 47.1875C32.0279 47.1875 32.1267 47.0312 32.1267 47.0312V46.8438C32.1267 46.75 32.0279 46.6875 32.0279 46.6875ZM29.8225 0.96875C27.4887 1.53447 25.4075 2.79593 23.8848 4.56776C22.3621 6.3396 21.4782 8.52839 21.3629 10.8125V12.0937C21.4617 13.9687 21.8896 15.375 21.8896 15.375C24.0621 24.4375 34.5954 39.2812 36.8667 42.4062C37.0312 42.5625 37.1958 42.5 37.1958 42.5C37.259 42.4741 37.3121 42.43 37.3475 42.3739C37.383 42.3178 37.399 42.2527 37.3933 42.1875C40.8825 9.0625 33.7396 0.25 33.7396 0.25C32.6863 0.3125 29.8225 0.96875 29.8225 0.96875ZM57.14 8.0625C57.14 8.0625 55.5271 2.4375 49.1084 0.9375C49.1084 0.9375 47.2321 0.5 45.2571 0.25C45.2571 0.25 38.0813 9.03125 41.5705 42.2187C41.6034 42.4375 41.768 42.4687 41.768 42.4687C41.9984 42.5625 42.0971 42.375 42.0971 42.375C44.4671 39.1562 54.9346 24.375 57.0742 15.375C57.0742 15.375 58.2592 11 57.14 8.0625ZM47.5284 48.9062C47.5284 48.9062 47.298 48.9062 47.2321 49.0625C47.2321 49.0625 47.1992 49.2812 47.3309 49.375C49.635 50.9687 56.7121 55.625 60.1025 56.5625C60.1025 56.5625 60.6292 56.7188 61.518 56.75H61.9788C64.25 56.6875 68.233 55.5937 71.8538 49.6875L47.4955 48.9062H47.5284ZM73.3021 22.625C73.763 16.1875 66.9163 10.2187 66.9163 10.1875C66.9163 10.1875 54.2434 24.75 44.9609 43.9375C44.9609 43.9375 44.8621 44.1875 45.0267 44.3437L45.1584 44.375H45.3559C48.845 42.7187 63.3284 35.7187 69.3192 30.1875C69.3192 30.1875 73.1046 27.2812 73.3021 22.625ZM78.3055 29.3125C78.3055 29.3125 57.6338 39.8437 46.9688 46.6562C46.9688 46.6562 46.8042 46.7812 46.87 47C46.87 47 46.9688 47.1875 47.1005 47.1875C50.9188 47.1875 65.4021 47.1875 65.7642 47.125C65.7642 47.125 67.6405 47.0625 69.9446 46.2187C69.9446 46.2187 75.0796 44.6562 77.7459 39.125C77.7459 39.125 80.1488 34.5938 78.3055 29.3125Z" fill="#8D89CD"/>
</svg>
