<svg width="32" height="29" viewBox="0 0 32 29" fill="none" xmlns="http://www.w3.org/2000/svg">
<path d="M22.25 26.5229V23.7837C22.25 22.3308 21.7232 20.9374 20.7855 19.91C19.8479 18.8827 18.5761 18.3055 17.25 18.3055H7.25C5.92392 18.3055 4.65215 18.8827 3.71447 19.91C2.77678 20.9374 2.25 22.3308 2.25 23.7837V26.5229" stroke="#FAFBFF" stroke-width="3" stroke-linecap="round" stroke-linejoin="round"/>
<path d="M12.25 12.8272C15.0114 12.8272 17.25 10.3745 17.25 7.34896C17.25 4.3234 15.0114 1.8707 12.25 1.8707C9.48858 1.8707 7.25 4.3234 7.25 7.34896C7.25 10.3745 9.48858 12.8272 12.25 12.8272Z" stroke="#FAFBFF" stroke-width="3" stroke-linecap="round" stroke-linejoin="round"/>
<path d="M29.75 26.5229V23.7837C29.7492 22.5699 29.3804 21.3908 28.7017 20.4315C28.023 19.4722 27.0727 18.787 26 18.4835" stroke="#FAFBFF" stroke-width="3" stroke-linecap="round" stroke-linejoin="round"/>
<path d="M21 2.04874C22.0755 2.35045 23.0288 3.03578 23.7095 3.99668C24.3903 4.95758 24.7598 6.13939 24.7598 7.3558C24.7598 8.57221 24.3903 9.75402 23.7095 10.7149C23.0288 11.6758 22.0755 12.3612 21 12.6629" stroke="#FAFBFF" stroke-width="3" stroke-linecap="round" stroke-linejoin="round"/>
</svg>
