<svg width="79" height="35" viewBox="0 0 79 35" fill="none" xmlns="http://www.w3.org/2000/svg">
<path d="M78.9875 28.4811C78.9875 34.9305 70.2066 38.0271 65.5611 30.5361C65.228 29.9955 57.9073 18.0261 57.9073 18.0261V28.4814C57.9073 34.9305 49.1308 38.0271 44.4852 30.5361C44.1478 29.9955 36.8311 18.0261 36.8311 18.0261V27.8846C36.8311 32.359 34.0339 34.7824 29.6582 34.7824H18.2026C13.375 34.7824 8.74506 32.9617 5.33141 29.7209C1.91777 26.4801 0 22.0846 0 17.5014C0 12.9183 1.91777 8.52279 5.33141 5.28198C8.74506 2.04118 13.375 0.220514 18.2026 0.220514H24.1098V4.37051H18.2026C16.3862 4.37051 14.5877 4.71015 12.9096 5.37005C11.2315 6.02994 9.70676 6.99716 8.42241 8.21648C7.13806 9.4358 6.11926 10.8833 5.42417 12.4765C4.72909 14.0696 4.37133 15.7771 4.37133 17.5014C4.37133 19.2258 4.72909 20.9333 5.42417 22.5264C6.11926 24.1196 7.13806 25.5671 8.42241 26.7864C9.70676 28.0057 11.2315 28.973 12.9096 29.6329C14.5877 30.2927 16.3862 30.6324 18.2026 30.6324H29.5569C30.3191 30.6181 31.046 30.3246 31.5855 29.8132C32.125 29.3018 32.4353 28.6122 32.4516 27.8886V6.63739C32.4407 6.44782 32.4978 6.26035 32.6134 6.10546C32.7291 5.95057 32.8965 5.83737 33.0885 5.78426C33.5526 5.66426 34.0421 5.93645 34.4009 6.51332L41.4852 18.1021C45.6031 24.8436 48.3082 29.2702 48.3417 29.3183C49.2657 30.8002 50.6413 31.0608 51.6245 30.8043C52.1864 30.6548 52.6798 30.3319 53.0267 29.8865C53.3737 29.4411 53.5544 28.8987 53.5403 28.3449V6.64176C53.5287 6.45262 53.5844 6.26526 53.6984 6.10976C53.8124 5.95426 53.9781 5.83963 54.169 5.78426C54.6288 5.66426 55.1137 5.93645 55.4682 6.51332L62.0338 17.2527L69.4137 29.3302C70.1349 30.4918 71.1392 30.9046 72.0128 30.9046C72.2423 30.9046 72.4707 30.8749 72.6918 30.8164C73.2611 30.6711 73.7624 30.3484 74.1152 29.9001C74.468 29.4519 74.6518 28.904 74.6372 28.3446V0.220826H79L78.9875 28.4811ZM26.3419 23.6546V6.5177C26.3419 0.0683247 35.1224 -3.02792 39.7679 4.46676C40.1053 5.00739 47.4221 16.973 47.4221 16.973V6.51739C47.4221 0.0680148 56.1983 -3.02824 60.8438 4.46645C61.1815 5.00708 68.4979 16.9727 68.4979 16.9727V0.220201H72.8775V28.3449C72.8885 28.535 72.8316 28.7231 72.716 28.8786C72.6004 29.0342 72.4329 29.1482 72.2406 29.2021C71.7764 29.3221 71.287 29.0499 70.9282 28.473C68.4628 24.4537 66.0043 20.4306 63.5529 16.4036L56.9873 5.67239C56.0676 4.18989 54.6963 3.92958 53.7216 4.18176C53.16 4.3309 52.6666 4.6531 52.319 5.09765C51.9714 5.54221 51.7894 6.08387 51.8016 6.63739V28.3449C51.8119 28.5348 51.7547 28.7226 51.6392 28.878C51.5237 29.0334 51.3566 29.1475 51.1647 29.2021C50.6963 29.3221 50.2068 29.0499 49.8523 28.473C49.7891 28.373 46.3335 22.7208 42.9958 17.2568C40.6343 13.3904 38.2714 9.52474 35.9071 5.65989C34.9875 4.17395 33.6119 3.9177 32.6286 4.16989C32.0667 4.31895 31.5728 4.64102 31.2245 5.08549C30.8763 5.52997 30.6934 6.07167 30.7047 6.62551V27.8761C30.6857 28.1588 30.5586 28.4252 30.3472 28.6252C30.1358 28.8251 29.8547 28.9448 29.5569 28.9618H18.194C14.9891 28.9618 11.9153 27.7531 9.64909 25.6015C7.38283 23.45 6.10966 20.532 6.10966 17.4893C6.10966 14.4466 7.38283 11.5285 9.64909 9.37698C11.9153 7.22547 14.9891 6.01676 18.194 6.01676H24.1016V10.1668H18.2447C16.1991 10.1668 14.2373 10.9382 12.7908 12.3115C11.3443 13.6847 10.5317 15.5472 10.5317 17.4893C10.5317 19.4313 11.3443 21.2938 12.7908 22.6671C14.2373 24.0403 16.1991 24.8118 18.2447 24.8118H25.1352C25.295 24.8129 25.4535 24.7836 25.6013 24.7256C25.7491 24.6677 25.8832 24.5823 25.9956 24.4744C26.1081 24.3665 26.1966 24.2383 26.2561 24.0974C26.3156 23.9565 26.3448 23.8063 26.3419 23.6546Z" fill="#8D89CD"/>
</svg>
