<svg width="79" height="55" viewBox="0 0 79 55" fill="none" xmlns="http://www.w3.org/2000/svg">
<path d="M41.3828 25.4625L41.4717 6.84692H45.8825C47.8839 10.9938 49.1676 16.475 50.1749 25.4625H41.3828ZM34.3354 54.9H41.6495L41.7318 32.2375H50.4975C51.1854 36.2375 51.3533 48.5844 51.3961 54.9H58.4896C59.1611 26.9219 57.0808 11.1063 51.3335 0.0969238H33.6672L34.3354 54.9ZM63.5423 54.9H71.1856L72.8084 7.00317H79L78.9539 0.0969238H57.4791V7.01255H63.7201L63.5423 54.9ZM29.467 0.103174H20.4412L21.409 54.9063H29.309L29.467 0.103174ZM9.05867 32.1782H15.4774V25.0938H9.05867L9.08171 7.26255H17.459L17.4129 0.100049H0L1.57342 54.9032H9.22654L9.05867 32.1782Z" fill="#8D89CD"/>
</svg>
