<svg width="77" height="73" viewBox="0 0 77 73" fill="none" xmlns="http://www.w3.org/2000/svg">
<path d="M22.9397 46.6251H13.9884C13.6481 46.6251 13.3216 46.7568 13.081 46.9912C12.8403 47.2256 12.7051 47.5436 12.7051 47.8751V54.1251C12.7051 54.7813 13.2826 55.3751 13.9884 55.3751H22.9718V59.5001H11.7426C9.94593 59.5001 8.47009 58.0626 8.47009 56.2813V45.6876C8.47009 43.9376 9.94593 42.5001 11.7747 42.5001H22.9397V46.6251ZM26.1801 35.0626C26.1801 36.8751 24.6722 38.3438 22.8113 38.3438H8.43801V34.1251H20.5655C20.9059 34.1251 21.2323 33.9934 21.473 33.759C21.7136 33.5246 21.8488 33.2066 21.8488 32.8751V18.9688C21.8488 18.8047 21.8156 18.6421 21.7512 18.4905C21.6867 18.3388 21.5921 18.201 21.473 18.085C21.3538 17.9689 21.2123 17.8768 21.0566 17.814C20.9009 17.7512 20.734 17.7188 20.5655 17.7188H14.0847C13.9135 17.7147 13.7431 17.7439 13.5837 17.8049C13.4243 17.8658 13.279 17.9572 13.1564 18.0737C13.0338 18.1902 12.9364 18.3294 12.8699 18.4832C12.8034 18.6369 12.7692 18.802 12.7693 18.9688V25.2813C12.7693 26.0001 13.3468 26.5313 14.0526 26.5313H19.2501V30.7501H11.8068C9.94593 30.7501 8.43801 29.3126 8.43801 27.5001V16.7501C8.43801 14.9688 9.94593 13.5001 11.8068 13.5001H22.7793C24.6401 13.5001 26.148 14.9688 26.148 16.7501V35.0626H26.1801ZM68.5301 59.5001H64.2951V46.6251H61.3113C60.971 46.6251 60.6446 46.7568 60.4039 46.9912C60.1632 47.2256 60.028 47.5436 60.028 47.8751V59.5001H55.7609V46.6251H52.7772C52.4368 46.6251 52.1104 46.7568 51.8697 46.9912C51.6291 47.2256 51.4938 47.5436 51.4938 47.8751V59.5001H47.2268V45.6876C47.2268 43.9376 48.7026 42.5001 50.5313 42.5001H68.5301V59.5001ZM68.5622 35.0626C68.5622 36.8751 67.0543 38.3438 65.1934 38.3438H50.8201V34.1251H62.9476C63.288 34.1251 63.6144 33.9934 63.855 33.759C64.0957 33.5246 64.2309 33.2066 64.2309 32.8751V18.9688C64.2309 18.6373 64.0957 18.3194 63.855 18.085C63.6144 17.8505 63.288 17.7188 62.9476 17.7188H56.4347C56.2661 17.7188 56.0993 17.7512 55.9436 17.814C55.7879 17.8768 55.6464 17.9689 55.5272 18.085C55.4081 18.201 55.3135 18.3388 55.249 18.4905C55.1845 18.6421 55.1513 18.8047 55.1513 18.9688V25.2813C55.1513 26.0001 55.7288 26.5313 56.4347 26.5313H61.6322V30.7501H54.2209C52.3601 30.7501 50.8522 29.3126 50.8522 27.5001V16.7501C50.8522 14.9688 52.3601 13.5001 54.2209 13.5001H65.2255C67.0863 13.5001 68.5943 14.9688 68.5943 16.7501V35.0626H68.5622ZM44.0184 13.5001H32.9818C31.1209 13.5001 29.6451 14.9688 29.6451 16.7501V27.5001C29.6451 29.3126 31.1209 30.7501 32.9818 30.7501H44.0184C45.8472 30.7501 47.3551 29.3126 47.3551 27.5001V16.7501C47.3551 14.9688 45.8472 13.5001 44.0184 13.5001ZM43.0559 18.9688V25.2813C43.0559 25.6129 42.9207 25.9308 42.68 26.1652C42.4394 26.3996 42.113 26.5313 41.7726 26.5313H35.2597C34.9193 26.5313 34.5929 26.3996 34.3522 26.1652C34.1115 25.9308 33.9763 25.6129 33.9763 25.2813V19.0001C33.9763 18.3126 34.5218 17.7501 35.2597 17.7501H41.7084C42.4463 17.7501 42.9918 18.3126 42.9918 19.0001L43.0559 18.9688ZM40.5213 42.5001H29.6451C27.8163 42.5001 26.3405 43.9376 26.3405 45.6876V56.2813C26.3405 58.0626 27.8163 59.5001 29.6451 59.5001H40.5213C42.3501 59.5001 43.8259 58.0626 43.8259 56.2813V45.6876C43.8259 43.9376 42.3501 42.5001 40.5213 42.5001ZM39.5588 47.8751V54.1251C39.5588 54.4566 39.4236 54.7745 39.183 55.009C38.9423 55.2434 38.6159 55.3751 38.2755 55.3751V55.3438H31.8909C31.5506 55.3438 31.2241 55.2121 30.9835 54.9777C30.7428 54.7433 30.6076 54.4254 30.6076 54.0938V47.8751C30.6076 47.1876 31.1851 46.6251 31.8909 46.6251H38.3076C39.0134 46.6251 39.5909 47.1876 39.5909 47.8751H39.5588ZM75.3638 2.43759C74.8445 1.92322 74.2253 1.51464 73.5423 1.23566C72.8593 0.956673 72.1261 0.812858 71.3855 0.81259H5.61468C4.87617 0.808444 4.14416 0.947067 3.46104 1.22043C2.77793 1.49379 2.15729 1.89646 1.63508 2.40511C1.11286 2.91375 0.699459 3.51827 0.418807 4.18364C0.138156 4.84902 -0.0041639 5.56201 9.2736e-05 6.28134V66.7188C-0.0041639 67.4382 0.138156 68.1512 0.418807 68.8165C0.699459 69.4819 1.11286 70.0864 1.63508 70.5951C2.15729 71.1037 2.77793 71.5064 3.46104 71.7797C4.14416 72.0531 4.87617 72.1917 5.61468 72.1876H71.3855C72.124 72.1917 72.856 72.0531 73.5391 71.7797C74.2223 71.5064 74.8429 71.1037 75.3651 70.5951C75.8873 70.0864 76.3007 69.4819 76.5814 68.8165C76.862 68.1512 77.0043 67.4382 77.0001 66.7188V6.28134C77.0001 4.78134 76.3584 3.40634 75.3638 2.40634M75.3638 66.7188C75.3681 67.2289 75.2681 67.7346 75.0697 68.2066C74.8713 68.6787 74.5784 69.1075 74.2081 69.4682C73.8379 69.8288 73.3976 70.1141 72.913 70.3074C72.4284 70.5006 71.9091 70.598 71.3855 70.5938H5.61468C5.08836 70.6022 4.56565 70.5079 4.07731 70.3165C3.58898 70.1251 3.14489 69.8405 2.77118 69.4794C2.39748 69.1183 2.10172 68.6881 1.90132 68.214C1.70091 67.7399 1.59991 67.2315 1.60426 66.7188V6.28134C1.59998 5.77131 1.69997 5.26555 1.89838 4.79353C2.0968 4.32151 2.38968 3.89268 2.75996 3.53202C3.13023 3.17136 3.5705 2.88609 4.05511 2.69283C4.53971 2.49956 5.05896 2.40218 5.58259 2.40634H71.3534C72.4085 2.40634 73.4204 2.8146 74.1665 3.5413C74.9126 4.268 75.3318 5.25363 75.3318 6.28134V66.7188H75.3638Z" fill="#8D89CD"/>
</svg>
