<svg width="79" height="35" viewBox="0 0 79 35" fill="none" xmlns="http://www.w3.org/2000/svg">
<path d="M17.3997 0.981201C12.785 0.981201 8.35935 2.72156 5.09627 5.81943C1.83318 8.9173 0 13.1189 0 17.5C0 21.881 1.83318 26.0826 5.09627 29.1805C8.35935 32.2783 12.785 34.0187 17.3997 34.0187C21.9558 33.9346 26.2954 32.1572 29.4862 29.0685C32.6769 25.9798 34.4643 21.8262 34.4643 17.5C34.4643 13.1737 32.6769 9.02009 29.4862 5.93139C26.2954 2.84268 21.9558 1.06534 17.3997 0.981201ZM17.3997 3.6687C17.5643 3.6687 17.9132 3.6687 18.091 3.67495V4.96557C17.8606 4.96088 17.6302 4.95775 17.3997 4.9562C15.6653 4.95209 13.9472 5.27449 12.3449 5.90476C10.7426 6.53502 9.28773 7.46064 8.06458 8.62808C6.83429 9.78888 5.85892 11.17 5.195 12.6913C4.53108 14.2126 4.19182 15.8439 4.19688 17.4906C4.19688 20.8406 5.5695 23.9906 8.06458 26.3531C9.28773 27.5205 10.7426 28.4461 12.3449 29.0764C13.9472 29.7067 15.6653 30.0291 17.3997 30.0249C20.7466 30.0191 23.9668 28.8098 26.4117 26.6406C28.8567 24.4713 30.3448 21.5033 30.5763 18.3343V18.1468H21.5637V16.8656H31.3762L31.9588 16.8624V17.4906C31.9649 19.3063 31.5915 21.1052 30.8604 22.7831C30.1293 24.461 29.0549 25.9845 27.6994 27.2656C26.3491 28.5535 24.7434 29.5745 22.9749 30.2697C21.2065 30.9648 19.3105 31.3203 17.3965 31.3156C13.5123 31.3156 9.85854 29.8781 7.09354 27.2656C5.73865 25.9843 4.66485 24.4606 3.93429 22.7827C3.20373 21.1049 2.83092 19.3061 2.83742 17.4906C2.84177 13.8249 4.37731 10.3106 7.10724 7.71829C9.83716 5.12599 13.5386 3.66741 17.3997 3.66245V3.6687ZM70.2738 6.41245C62.9992 6.41245 59.1743 10.1843 59.1743 17.375C59.1743 24.5312 62.6305 28.4062 70.2343 28.4062C73.7235 28.4062 77.1435 27.5625 79 26.3281V15.9656H69.9808V19.9468H74.2106V23.6812C73.4305 23.9625 71.9065 24.2468 70.4581 24.2468C65.784 24.2468 64.2237 21.9906 64.2237 17.4093C64.2237 13.0406 65.705 10.4656 70.3857 10.4656C72.9861 10.4656 74.4674 11.2406 75.6952 12.7218L78.9276 9.90308C76.9592 7.22495 73.5062 6.41245 70.2705 6.41245H70.2738ZM42.581 6.7312V28.0875H58.5456V23.9312H47.7818V6.72808L42.581 6.7312ZM11.8434 10.2406C12.3978 10.2406 12.9294 10.4496 13.3214 10.8218C13.7134 11.1939 13.9336 11.6987 13.9336 12.225C13.9336 12.7512 13.7134 13.256 13.3214 13.6281C12.9294 14.0003 12.3978 14.2093 11.8434 14.2093C11.2891 14.2093 10.7574 14.0003 10.3654 13.6281C9.97343 13.256 9.75321 12.7512 9.75321 12.225C9.75321 11.6987 9.97343 11.1939 10.3654 10.8218C10.7574 10.4496 11.2891 10.2406 11.8434 10.2406ZM16.7085 10.2468H18.091V23.4343H21.5538V24.7281H16.7085V10.2468Z" fill="#8D89CD"/>
</svg>
