<svg width="40" height="41" viewBox="0 0 40 41" fill="none" xmlns="http://www.w3.org/2000/svg">
<path d="M27.7778 4.64124H12.2222C11.6329 4.64124 11.0676 4.87536 10.6509 5.29211C10.2341 5.70886 10 6.27409 10 6.86346V33.5301C10 34.1195 10.2341 34.6847 10.6509 35.1015C11.0676 35.5182 11.6329 35.7523 12.2222 35.7523H27.7778C28.3671 35.7523 28.9324 35.5182 29.3491 35.1015C29.7659 34.6847 30 34.1195 30 33.5301V6.86346C30 6.27409 29.7659 5.70886 29.3491 5.29211C28.9324 4.87536 28.3671 4.64124 27.7778 4.64124ZM12.2222 6.86346H27.7778V26.8635H12.2222V6.86346ZM12.2222 33.5301V29.0857H27.7778V33.5301H12.2222Z" fill="#8D89CD"/>
<path d="M18.8889 30.1968H21.1111V32.419H18.8889V30.1968Z" fill="#8D89CD"/>
</svg>
