<svg width="303" height="303" viewBox="0 0 303 303" fill="none" xmlns="http://www.w3.org/2000/svg">
<g clip-path="url(#clip0_570_660)">
<path d="M303 151.5C303.053 187.262 290.403 221.881 267.306 249.183C266.467 250.179 265.613 251.16 264.742 252.135C254.502 263.652 242.573 273.548 229.363 281.486C226.333 283.305 223.236 285.019 220.073 286.629C219.754 286.791 219.429 286.954 219.109 287.111C218.726 287.305 218.338 287.494 217.95 287.682C209.947 291.6 201.61 294.796 193.039 297.234C192.148 297.485 191.255 297.73 190.361 297.967C179.086 300.951 167.504 302.62 155.846 302.942C155.238 302.958 154.64 302.969 154.063 302.979C153.859 302.984 153.66 302.99 153.461 302.99C152.805 302.995 152.155 303 151.5 303C139.214 303.009 126.973 301.525 115.046 298.581C113.85 298.287 112.66 297.978 111.476 297.653C105.235 295.949 99.1116 293.843 93.1437 291.347C89.9984 290.036 86.9089 288.622 83.8755 287.106C83.1887 286.76 82.502 286.414 81.8257 286.057C81.5374 285.916 81.2543 285.764 80.9713 285.617C64.8034 277.083 50.3045 265.708 38.1686 252.035C37.3298 251.097 36.5068 250.143 35.6943 249.183C22.3228 233.33 12.3485 214.899 6.38928 195.034C0.430008 175.169 -1.38738 154.292 1.04966 133.695C3.48669 113.099 10.1263 93.2228 20.5572 75.297C30.9881 57.3711 44.9882 41.7776 61.6904 29.4822C62.5501 28.8479 63.4151 28.2188 64.2905 27.6055C64.4635 27.4849 64.6365 27.3644 64.8095 27.2438C80.1919 16.4689 97.4571 8.67202 115.711 4.25667C116.749 3.9998 117.787 3.75866 118.836 3.53325C138.608 -0.791741 159.042 -1.14989 178.953 2.47956C179.997 2.67352 181.04 2.87273 182.078 3.08766C200.169 6.79837 217.423 13.8049 232.98 23.7577C233.326 23.9779 233.672 24.1981 234.018 24.4287C234.715 24.8795 235.412 25.3409 236.099 25.8074C256.706 39.6617 273.588 58.374 285.255 80.2941C296.923 102.214 303.017 126.668 303 151.5Z" fill="#F2F2F2"/>
<path d="M113.232 229.876L64.8095 234.175L64.2905 234.222V27.6055C64.4635 27.4849 64.6365 27.3644 64.8095 27.2438C74.9012 20.185 85.8178 14.386 97.3165 9.97593L99.7908 44.1027L100.016 47.2271L102.464 81.0708L103.219 91.4819L113.143 228.671L113.232 229.876ZM232.98 23.7577C233.326 23.9779 233.672 24.1981 234.018 24.4287V234.222L232.98 234.128L185.082 229.876L185.171 228.671L195.094 91.4819L195.849 81.0708L198.297 47.2271L198.523 44.1027L201.118 8.31415C212.308 12.193 223.002 17.3766 232.98 23.7577Z" fill="#CCCCCC"/>
<path d="M232.98 23.7577V237.084C232.98 241.179 230.159 244.507 226.689 244.507H71.1002C68.2275 244.507 65.7898 242.222 65.0507 239.103C64.8893 238.442 64.8084 237.764 64.8095 237.084V27.2438C64.6366 27.3644 64.4636 27.485 64.2906 27.6055C63.4151 28.2188 62.5502 28.8479 61.6904 29.4822V237.084C61.644 240.194 62.8053 243.201 64.9301 245.472C66.0443 246.639 67.4536 247.483 69.0086 247.915C69.6903 248.1 70.3937 248.194 71.1002 248.193H226.689C227.397 248.193 228.102 248.1 228.786 247.915C232.969 246.788 236.099 242.363 236.099 237.084V25.8074C235.412 25.3409 234.715 24.8796 234.018 24.4287C233.672 24.1981 233.326 23.9779 232.98 23.7577Z" fill="#CCCCCC"/>
<path d="M63.25 44.1048H234.541V47.2287H63.25V44.1048Z" fill="#CCCCCC"/>
<path d="M115.711 4.25668C116.749 3.99981 117.787 3.75867 118.836 3.53325V88.3575H115.711V4.25668ZM178.953 2.47957C179.997 2.67353 181.04 2.87273 182.078 3.08767V88.3575H178.953V2.47957ZM254.064 228.671H48.9308C45.202 228.671 41.6259 230.152 38.9892 232.789C36.3525 235.425 34.8712 239.001 34.8712 242.73C34.8712 246.459 36.3525 250.035 38.9892 252.672C41.6259 255.309 45.202 256.79 48.9308 256.79H254.064C256.061 256.79 258.034 256.364 259.853 255.541C261.672 254.717 263.294 253.515 264.611 252.014C265.207 251.336 265.738 250.602 266.194 249.823C266.548 249.226 266.855 248.602 267.112 247.957C267.968 245.824 268.288 243.513 268.044 241.228C267.8 238.942 266.998 236.752 265.71 234.848C264.422 232.944 262.687 231.386 260.657 230.309C258.626 229.232 256.362 228.669 254.064 228.671Z" fill="#CCCCCC"/>
<path d="M64.2913 81.0703H234.541V91.4831H64.2913V81.0703Z" fill="#CCCCCC"/>
<path d="M147.854 77.9464H150.978C151.73 77.9464 152.475 78.0946 153.169 78.3824C153.864 78.6702 154.496 79.092 155.027 79.6238C155.559 80.1556 155.981 80.787 156.269 81.4818C156.557 82.1767 156.705 82.9214 156.705 83.6735H142.127C142.127 82.1546 142.73 80.6979 143.804 79.6238C144.878 78.5498 146.335 77.9464 147.854 77.9464Z" fill="#CCCCCC"/>
<path d="M267.306 249.183C262.752 254.579 257.826 259.651 252.565 264.36H50.4353C45.174 259.651 40.2483 254.579 35.6942 249.183H267.306Z" fill="#3F3D56"/>
<path d="M168.422 196.62H134.389C134.206 196.618 134.024 196.646 133.849 196.704C133.48 196.818 133.157 197.047 132.928 197.359C132.698 197.67 132.575 198.047 132.576 198.434V252.198H170.241V198.434C170.241 198.195 170.193 197.959 170.102 197.738C170.01 197.518 169.876 197.318 169.707 197.15C169.538 196.981 169.338 196.848 169.117 196.757C168.897 196.666 168.66 196.619 168.422 196.62ZM155.542 223.145C155.543 224.017 155.255 224.865 154.724 225.557C154.217 226.228 153.512 226.723 152.708 226.972C151.905 227.221 151.044 227.212 150.246 226.945C149.448 226.679 148.754 226.169 148.261 225.487C147.769 224.806 147.503 223.986 147.5 223.145V216.907C147.51 215.847 147.938 214.834 148.691 214.088C149.444 213.342 150.461 212.923 151.521 212.923C152.581 212.923 153.598 213.342 154.351 214.088C155.104 214.834 155.532 215.847 155.542 216.907V223.145Z" fill="#2F2E41"/>
<path d="M132.46 250.478V255.663C132.46 255.932 132.567 256.19 132.756 256.38C132.946 256.571 133.203 256.678 133.472 256.68H169.344C169.613 256.678 169.87 256.57 170.059 256.379C170.249 256.189 170.355 255.931 170.356 255.663V250.478H132.46ZM224.776 112.718H79.3042C78.0543 112.72 76.856 113.217 75.9717 114.1C75.0874 114.983 74.5892 116.181 74.5862 117.431V215.597C74.5872 216.848 75.0846 218.047 75.9691 218.932C76.8537 219.816 78.0532 220.314 79.3042 220.315H224.776C226.027 220.314 227.226 219.816 228.111 218.932C228.995 218.047 229.493 216.848 229.494 215.597V117.431C229.491 116.181 228.992 114.983 228.108 114.1C227.224 113.217 226.026 112.72 224.776 112.718Z" fill="#3F3D56"/>
<path d="M223.559 116.126H80.5152C79.8459 116.127 79.2046 116.394 78.7319 116.868C78.2592 117.341 77.9937 117.983 77.9937 118.652V214.386C77.9948 215.054 78.2608 215.695 78.7335 216.167C79.2061 216.64 79.8468 216.906 80.5152 216.907H223.559C224.228 216.906 224.869 216.64 225.341 216.167C225.814 215.695 226.08 215.054 226.081 214.386V118.652C226.081 117.983 225.815 117.341 225.343 116.868C224.87 116.394 224.229 116.127 223.559 116.126Z" fill="#6C63FF"/>
<path d="M197.233 256.596L195.912 250.321C195.857 250.065 195.739 249.827 195.569 249.628C195.399 249.43 195.182 249.277 194.937 249.183C194.76 249.114 194.571 249.078 194.381 249.079H111.916C111.726 249.078 111.537 249.114 111.36 249.183C111.116 249.277 110.899 249.43 110.728 249.628C110.558 249.827 110.44 250.065 110.385 250.321L109.064 256.596C109.017 256.824 109.02 257.059 109.075 257.285C109.13 257.512 109.234 257.723 109.381 257.904C109.527 258.084 109.712 258.23 109.922 258.33C110.133 258.431 110.362 258.483 110.595 258.483H195.697C195.931 258.484 196.161 258.433 196.372 258.332C196.583 258.231 196.768 258.084 196.913 257.901C197.06 257.721 197.165 257.51 197.22 257.285C197.276 257.059 197.28 256.824 197.233 256.596Z" fill="#2F2E41"/>
<path d="M114.886 250.209H112.776C112.635 250.209 112.521 250.323 112.521 250.465V251.525C112.521 251.667 112.635 251.781 112.776 251.781H114.886C115.027 251.781 115.142 251.667 115.142 251.525V250.465C115.142 250.323 115.027 250.209 114.886 250.209Z" fill="#3F3D56"/>
<path d="M120.128 250.209H118.019C117.877 250.209 117.763 250.323 117.763 250.465V251.525C117.763 251.667 117.877 251.781 118.019 251.781H120.128C120.269 251.781 120.384 251.667 120.384 251.525V250.465C120.384 250.323 120.269 250.209 120.128 250.209Z" fill="#3F3D56"/>
<path d="M125.37 250.209H123.261C123.119 250.209 123.005 250.323 123.005 250.465V251.525C123.005 251.667 123.119 251.781 123.261 251.781H125.37C125.511 251.781 125.626 251.667 125.626 251.525V250.465C125.626 250.323 125.511 250.209 125.37 250.209Z" fill="#3F3D56"/>
<path d="M130.612 250.209H128.503C128.362 250.209 128.247 250.323 128.247 250.465V251.525C128.247 251.667 128.362 251.781 128.503 251.781H130.612C130.754 251.781 130.868 251.667 130.868 251.525V250.465C130.868 250.323 130.754 250.209 130.612 250.209Z" fill="#3F3D56"/>
<path d="M135.854 250.209H133.745C133.604 250.209 133.489 250.323 133.489 250.465V251.525C133.489 251.667 133.604 251.781 133.745 251.781H135.854C135.996 251.781 136.11 251.667 136.11 251.525V250.465C136.11 250.323 135.996 250.209 135.854 250.209Z" fill="#3F3D56"/>
<path d="M141.097 250.209H138.987C138.846 250.209 138.732 250.323 138.732 250.465V251.525C138.732 251.667 138.846 251.781 138.987 251.781H141.097C141.238 251.781 141.353 251.667 141.353 251.525V250.465C141.353 250.323 141.238 250.209 141.097 250.209Z" fill="#3F3D56"/>
<path d="M146.339 250.209H144.23C144.088 250.209 143.974 250.323 143.974 250.465V251.525C143.974 251.667 144.088 251.781 144.23 251.781H146.339C146.48 251.781 146.595 251.667 146.595 251.525V250.465C146.595 250.323 146.48 250.209 146.339 250.209Z" fill="#3F3D56"/>
<path d="M151.581 250.209H149.472C149.331 250.209 149.216 250.323 149.216 250.465V251.525C149.216 251.667 149.331 251.781 149.472 251.781H151.581C151.722 251.781 151.837 251.667 151.837 251.525V250.465C151.837 250.323 151.722 250.209 151.581 250.209Z" fill="#3F3D56"/>
<path d="M156.823 250.209H154.714C154.573 250.209 154.458 250.323 154.458 250.465V251.525C154.458 251.667 154.573 251.781 154.714 251.781H156.823C156.965 251.781 157.079 251.667 157.079 251.525V250.465C157.079 250.323 156.965 250.209 156.823 250.209Z" fill="#3F3D56"/>
<path d="M162.066 250.209H159.956C159.815 250.209 159.7 250.323 159.7 250.465V251.525C159.7 251.667 159.815 251.781 159.956 251.781H162.066C162.207 251.781 162.321 251.667 162.321 251.525V250.465C162.321 250.323 162.207 250.209 162.066 250.209Z" fill="#3F3D56"/>
<path d="M167.308 250.209H165.199C165.057 250.209 164.943 250.323 164.943 250.465V251.525C164.943 251.667 165.057 251.781 165.199 251.781H167.308C167.449 251.781 167.564 251.667 167.564 251.525V250.465C167.564 250.323 167.449 250.209 167.308 250.209Z" fill="#3F3D56"/>
<path d="M172.55 250.209H170.441C170.299 250.209 170.185 250.323 170.185 250.465V251.525C170.185 251.667 170.299 251.781 170.441 251.781H172.55C172.691 251.781 172.806 251.667 172.806 251.525V250.465C172.806 250.323 172.691 250.209 172.55 250.209Z" fill="#3F3D56"/>
<path d="M177.792 250.209H175.683C175.542 250.209 175.427 250.323 175.427 250.465V251.525C175.427 251.667 175.542 251.781 175.683 251.781H177.792C177.934 251.781 178.048 251.667 178.048 251.525V250.465C178.048 250.323 177.934 250.209 177.792 250.209Z" fill="#3F3D56"/>
<path d="M183.034 250.209H180.925C180.784 250.209 180.669 250.323 180.669 250.465V251.525C180.669 251.667 180.784 251.781 180.925 251.781H183.034C183.176 251.781 183.29 251.667 183.29 251.525V250.465C183.29 250.323 183.176 250.209 183.034 250.209Z" fill="#3F3D56"/>
<path d="M188.277 250.209H186.167C186.026 250.209 185.911 250.323 185.911 250.465V251.525C185.911 251.667 186.026 251.781 186.167 251.781H188.277C188.418 251.781 188.533 251.667 188.533 251.525V250.465C188.533 250.323 188.418 250.209 188.277 250.209Z" fill="#3F3D56"/>
<path d="M193.519 250.209H191.41C191.268 250.209 191.154 250.323 191.154 250.465V251.525C191.154 251.667 191.268 251.781 191.41 251.781H193.519C193.66 251.781 193.775 251.667 193.775 251.525V250.465C193.775 250.323 193.66 250.209 193.519 250.209Z" fill="#3F3D56"/>
<path d="M114.824 252.83H112.714C112.573 252.83 112.458 252.944 112.458 253.086V254.147C112.458 254.288 112.573 254.402 112.714 254.402H114.824C114.965 254.402 115.08 254.288 115.08 254.147V253.086C115.08 252.944 114.965 252.83 114.824 252.83Z" fill="#3F3D56"/>
<path d="M120.066 252.83H117.957C117.815 252.83 117.701 252.944 117.701 253.086V254.147C117.701 254.288 117.815 254.402 117.957 254.402H120.066C120.207 254.402 120.322 254.288 120.322 254.147V253.086C120.322 252.944 120.207 252.83 120.066 252.83Z" fill="#3F3D56"/>
<path d="M125.308 252.83H123.199C123.058 252.83 122.943 252.944 122.943 253.086V254.147C122.943 254.288 123.058 254.402 123.199 254.402H125.308C125.45 254.402 125.564 254.288 125.564 254.147V253.086C125.564 252.944 125.45 252.83 125.308 252.83Z" fill="#3F3D56"/>
<path d="M130.55 252.83H128.441C128.3 252.83 128.185 252.944 128.185 253.086V254.147C128.185 254.288 128.3 254.402 128.441 254.402H130.55C130.692 254.402 130.806 254.288 130.806 254.147V253.086C130.806 252.944 130.692 252.83 130.55 252.83Z" fill="#3F3D56"/>
<path d="M135.793 252.83H133.683C133.542 252.83 133.427 252.944 133.427 253.086V254.147C133.427 254.288 133.542 254.402 133.683 254.402H135.793C135.934 254.402 136.048 254.288 136.048 254.147V253.086C136.048 252.944 135.934 252.83 135.793 252.83Z" fill="#3F3D56"/>
<path d="M141.035 252.83H138.925C138.784 252.83 138.67 252.944 138.67 253.086V254.147C138.67 254.288 138.784 254.402 138.925 254.402H141.035C141.176 254.402 141.291 254.288 141.291 254.147V253.086C141.291 252.944 141.176 252.83 141.035 252.83Z" fill="#3F3D56"/>
<path d="M146.277 252.83H144.168C144.026 252.83 143.912 252.944 143.912 253.086V254.147C143.912 254.288 144.026 254.402 144.168 254.402H146.277C146.418 254.402 146.533 254.288 146.533 254.147V253.086C146.533 252.944 146.418 252.83 146.277 252.83Z" fill="#3F3D56"/>
<path d="M151.519 252.83H149.41C149.269 252.83 149.154 252.944 149.154 253.086V254.147C149.154 254.288 149.269 254.402 149.41 254.402H151.519C151.661 254.402 151.775 254.288 151.775 254.147V253.086C151.775 252.944 151.661 252.83 151.519 252.83Z" fill="#3F3D56"/>
<path d="M156.761 252.83H154.652C154.511 252.83 154.396 252.944 154.396 253.086V254.147C154.396 254.288 154.511 254.402 154.652 254.402H156.761C156.903 254.402 157.017 254.288 157.017 254.147V253.086C157.017 252.944 156.903 252.83 156.761 252.83Z" fill="#3F3D56"/>
<path d="M162.004 252.83H159.894C159.753 252.83 159.638 252.944 159.638 253.086V254.147C159.638 254.288 159.753 254.402 159.894 254.402H162.004C162.145 254.402 162.26 254.288 162.26 254.147V253.086C162.26 252.944 162.145 252.83 162.004 252.83Z" fill="#3F3D56"/>
<path d="M167.246 252.83H165.137C164.995 252.83 164.881 252.944 164.881 253.086V254.147C164.881 254.288 164.995 254.402 165.137 254.402H167.246C167.387 254.402 167.502 254.288 167.502 254.147V253.086C167.502 252.944 167.387 252.83 167.246 252.83Z" fill="#3F3D56"/>
<path d="M172.488 252.83H170.379C170.237 252.83 170.123 252.944 170.123 253.086V254.147C170.123 254.288 170.237 254.402 170.379 254.402H172.488C172.629 254.402 172.744 254.288 172.744 254.147V253.086C172.744 252.944 172.629 252.83 172.488 252.83Z" fill="#3F3D56"/>
<path d="M177.73 252.83H175.621C175.48 252.83 175.365 252.944 175.365 253.086V254.147C175.365 254.288 175.48 254.402 175.621 254.402H177.73C177.872 254.402 177.986 254.288 177.986 254.147V253.086C177.986 252.944 177.872 252.83 177.73 252.83Z" fill="#3F3D56"/>
<path d="M182.972 252.83H180.863C180.722 252.83 180.607 252.944 180.607 253.086V254.147C180.607 254.288 180.722 254.402 180.863 254.402H182.972C183.114 254.402 183.228 254.288 183.228 254.147V253.086C183.228 252.944 183.114 252.83 182.972 252.83Z" fill="#3F3D56"/>
<path d="M188.215 252.83H186.105C185.964 252.83 185.85 252.944 185.85 253.086V254.147C185.85 254.288 185.964 254.402 186.105 254.402H188.215C188.356 254.402 188.471 254.288 188.471 254.147V253.086C188.471 252.944 188.356 252.83 188.215 252.83Z" fill="#3F3D56"/>
<path d="M193.457 252.83H191.348C191.206 252.83 191.092 252.944 191.092 253.086V254.147C191.092 254.288 191.206 254.402 191.348 254.402H193.457C193.598 254.402 193.713 254.288 193.713 254.147V253.086C193.713 252.944 193.598 252.83 193.457 252.83Z" fill="#3F3D56"/>
<path d="M158.334 255.975H137.877C137.736 255.975 137.621 256.09 137.621 256.231V257.292C137.621 257.433 137.736 257.548 137.877 257.548H158.334C158.475 257.548 158.59 257.433 158.59 257.292V256.231C158.59 256.09 158.475 255.975 158.334 255.975Z" fill="#3F3D56"/>
<path d="M216.371 129.313H82.5255C82.3863 129.31 82.2539 129.253 82.1566 129.153C82.0593 129.054 82.0048 128.92 82.0048 128.781C82.0048 128.642 82.0593 128.508 82.1566 128.409C82.2539 128.309 82.3863 128.252 82.5255 128.249H216.371C216.511 128.252 216.643 128.309 216.74 128.409C216.838 128.508 216.892 128.642 216.892 128.781C216.892 128.92 216.838 129.054 216.74 129.153C216.643 129.253 216.511 129.31 216.371 129.313Z" fill="#3F3D56"/>
<path d="M91.6366 125.531C93.3593 125.531 94.7559 124.103 94.7559 122.342C94.7559 120.581 93.3593 119.153 91.6366 119.153C89.9138 119.153 88.5172 120.581 88.5172 122.342C88.5172 124.103 89.9138 125.531 91.6366 125.531Z" fill="#3F3D56"/>
<path d="M102.412 125.531C104.135 125.531 105.532 124.103 105.532 122.342C105.532 120.581 104.135 119.153 102.412 119.153C100.69 119.153 99.2931 120.581 99.2931 122.342C99.2931 124.103 100.69 125.531 102.412 125.531Z" fill="#3F3D56"/>
<path d="M113.188 125.531C114.911 125.531 116.308 124.103 116.308 122.342C116.308 120.581 114.911 119.153 113.188 119.153C111.466 119.153 110.069 120.581 110.069 122.342C110.069 124.103 111.466 125.531 113.188 125.531Z" fill="#3F3D56"/>
<path d="M209.883 119.942H202.229C202.078 119.945 201.934 120.008 201.828 120.116C201.722 120.224 201.663 120.37 201.663 120.521C201.663 120.672 201.722 120.818 201.828 120.926C201.934 121.034 202.078 121.097 202.229 121.1H209.883C210.035 121.098 210.18 121.036 210.287 120.928C210.394 120.819 210.454 120.673 210.454 120.521C210.454 120.369 210.394 120.223 210.287 120.114C210.18 120.006 210.035 119.944 209.883 119.942ZM209.883 122.117H202.229C202.077 122.121 201.933 122.183 201.828 122.292C201.722 122.4 201.662 122.545 201.662 122.697C201.662 122.848 201.722 122.994 201.828 123.102C201.933 123.21 202.077 123.273 202.229 123.276H209.883C210.035 123.274 210.181 123.212 210.288 123.104C210.395 122.995 210.455 122.849 210.455 122.697C210.455 122.544 210.395 122.398 210.288 122.289C210.181 122.181 210.035 122.119 209.883 122.117ZM209.883 124.293H202.229C202.078 124.296 201.934 124.359 201.828 124.467C201.722 124.576 201.663 124.721 201.663 124.872C201.663 125.024 201.722 125.169 201.828 125.277C201.934 125.385 202.078 125.448 202.229 125.451H209.883C210.035 125.449 210.18 125.387 210.287 125.279C210.394 125.171 210.454 125.024 210.454 124.872C210.454 124.72 210.394 124.574 210.287 124.465C210.18 124.357 210.035 124.295 209.883 124.293Z" fill="#3F3D56"/>
<path d="M94.0664 141.683H91.3163C90.4825 141.683 89.8065 142.359 89.8065 143.193C89.8065 144.027 90.4825 144.703 91.3163 144.703H94.0664C94.9002 144.703 95.5761 144.027 95.5761 143.193C95.5761 142.359 94.9002 141.683 94.0664 141.683Z" fill="#E6E6E6"/>
<path d="M125.52 141.683H122.77C121.936 141.683 121.26 142.359 121.26 143.193C121.26 144.027 121.936 144.703 122.77 144.703H125.52C126.353 144.703 127.029 144.027 127.029 143.193C127.029 142.359 126.353 141.683 125.52 141.683Z" fill="#E6E6E6"/>
<path d="M134.432 141.683H131.681C130.848 141.683 130.172 142.359 130.172 143.193C130.172 144.027 130.848 144.703 131.681 144.703H134.432C135.265 144.703 135.941 144.027 135.941 143.193C135.941 142.359 135.265 141.683 134.432 141.683Z" fill="#E6E6E6"/>
<path d="M116.964 141.431H99.8717C99.0379 141.431 98.3619 142.107 98.3619 142.941C98.3619 143.775 99.0379 144.451 99.8717 144.451H116.964C117.798 144.451 118.474 143.775 118.474 142.941C118.474 142.107 117.798 141.431 116.964 141.431Z" fill="#E6E6E6"/>
<path d="M158.902 141.431H141.809C140.976 141.431 140.3 142.107 140.3 142.941C140.3 143.775 140.976 144.451 141.809 144.451H158.902C159.736 144.451 160.412 143.775 160.412 142.941C160.412 142.107 159.736 141.431 158.902 141.431Z" fill="#E6E6E6"/>
<path d="M102.454 148.498H99.7038C98.87 148.498 98.1941 149.174 98.1941 150.008C98.1941 150.841 98.87 151.517 99.7038 151.517H102.454C103.288 151.517 103.964 150.841 103.964 150.008C103.964 149.174 103.288 148.498 102.454 148.498Z" fill="#E6E6E6"/>
<path d="M133.907 148.498H131.157C130.323 148.498 129.647 149.174 129.647 150.008C129.647 150.841 130.323 151.517 131.157 151.517H133.907C134.741 151.517 135.417 150.841 135.417 150.008C135.417 149.174 134.741 148.498 133.907 148.498Z" fill="#E6E6E6"/>
<path d="M142.819 148.498H140.069C139.235 148.498 138.559 149.174 138.559 150.008C138.559 150.841 139.235 151.517 140.069 151.517H142.819C143.653 151.517 144.329 150.841 144.329 150.008C144.329 149.174 143.653 148.498 142.819 148.498Z" fill="#E6E6E6"/>
<path d="M125.352 148.246H108.259C107.425 148.246 106.75 148.922 106.75 149.756C106.75 150.59 107.425 151.266 108.259 151.266H125.352C126.186 151.266 126.862 150.59 126.862 149.756C126.862 148.922 126.186 148.246 125.352 148.246Z" fill="#E6E6E6"/>
<path d="M167.29 148.246H150.197C149.363 148.246 148.687 148.922 148.687 149.756C148.687 150.59 149.363 151.266 150.197 151.266H167.29C168.123 151.266 168.799 150.59 168.799 149.756C168.799 148.922 168.123 148.246 167.29 148.246Z" fill="#E6E6E6"/>
<path d="M110.842 155.313H108.091C107.258 155.313 106.582 155.989 106.582 156.823C106.582 157.656 107.258 158.332 108.091 158.332H110.842C111.675 158.332 112.351 157.656 112.351 156.823C112.351 155.989 111.675 155.313 110.842 155.313Z" fill="#E6E6E6"/>
<path d="M142.295 155.313H139.545C138.711 155.313 138.035 155.989 138.035 156.823C138.035 157.656 138.711 158.332 139.545 158.332H142.295C143.129 158.332 143.805 157.656 143.805 156.823C143.805 155.989 143.129 155.313 142.295 155.313Z" fill="#E6E6E6"/>
<path d="M151.207 155.313H148.456C147.623 155.313 146.947 155.989 146.947 156.823C146.947 157.656 147.623 158.332 148.456 158.332H151.207C152.04 158.332 152.716 157.656 152.716 156.823C152.716 155.989 152.04 155.313 151.207 155.313Z" fill="#E6E6E6"/>
<path d="M133.739 155.061H116.647C115.813 155.061 115.137 155.737 115.137 156.571C115.137 157.405 115.813 158.081 116.647 158.081H133.739C134.573 158.081 135.249 157.405 135.249 156.571C135.249 155.737 134.573 155.061 133.739 155.061Z" fill="#E6E6E6"/>
<path d="M175.677 155.061H158.584C157.751 155.061 157.075 155.737 157.075 156.571C157.075 157.405 157.751 158.081 158.584 158.081H175.677C176.511 158.081 177.187 157.405 177.187 156.571C177.187 155.737 176.511 155.061 175.677 155.061Z" fill="#E6E6E6"/>
<path d="M119.229 162.128H116.479C115.645 162.128 114.969 162.804 114.969 163.637C114.969 164.471 115.645 165.147 116.479 165.147H119.229C120.063 165.147 120.739 164.471 120.739 163.637C120.739 162.804 120.063 162.128 119.229 162.128Z" fill="#E6E6E6"/>
<path d="M150.682 162.128H147.932C147.098 162.128 146.422 162.804 146.422 163.637C146.422 164.471 147.098 165.147 147.932 165.147H150.682C151.516 165.147 152.192 164.471 152.192 163.637C152.192 162.804 151.516 162.128 150.682 162.128Z" fill="#E6E6E6"/>
<path d="M159.594 162.128H156.844C156.01 162.128 155.334 162.804 155.334 163.637C155.334 164.471 156.01 165.147 156.844 165.147H159.594C160.428 165.147 161.104 164.471 161.104 163.637C161.104 162.804 160.428 162.128 159.594 162.128Z" fill="#E6E6E6"/>
<path d="M142.127 161.876H125.034C124.2 161.876 123.525 162.552 123.525 163.386C123.525 164.22 124.2 164.895 125.034 164.895H142.127C142.961 164.895 143.637 164.22 143.637 163.386C143.637 162.552 142.961 161.876 142.127 161.876Z" fill="#E6E6E6"/>
<path d="M125.52 189.227H122.77C121.936 189.227 121.26 189.902 121.26 190.736C121.26 191.57 121.936 192.246 122.77 192.246H125.52C126.353 192.246 127.029 191.57 127.029 190.736C127.029 189.902 126.353 189.227 125.52 189.227Z" fill="#E6E6E6"/>
<path d="M134.432 189.227H131.681C130.848 189.227 130.172 189.902 130.172 190.736C130.172 191.57 130.848 192.246 131.681 192.246H134.432C135.265 192.246 135.941 191.57 135.941 190.736C135.941 189.902 135.265 189.227 134.432 189.227Z" fill="#E6E6E6"/>
<path d="M158.902 189.478H141.809C140.976 189.478 140.3 190.154 140.3 190.988C140.3 191.822 140.976 192.498 141.809 192.498H158.902C159.736 192.498 160.412 191.822 160.412 190.988C160.412 190.154 159.736 189.478 158.902 189.478Z" fill="#E6E6E6"/>
<path d="M94.0664 189.227H91.3163C90.4825 189.227 89.8065 189.902 89.8065 190.736C89.8065 191.57 90.4825 192.246 91.3163 192.246H94.0664C94.9002 192.246 95.5761 191.57 95.5761 190.736C95.5761 189.902 94.9002 189.227 94.0664 189.227Z" fill="#E6E6E6"/>
<path d="M116.964 189.478H99.8717C99.0379 189.478 98.3619 190.154 98.3619 190.988C98.3619 191.822 99.0379 192.498 99.8717 192.498H116.964C117.798 192.498 118.474 191.822 118.474 190.988C118.474 190.154 117.798 189.478 116.964 189.478Z" fill="#E6E6E6"/>
<path d="M102.454 182.412H99.7038C98.87 182.412 98.1941 183.088 98.1941 183.921C98.1941 184.755 98.87 185.431 99.7038 185.431H102.454C103.288 185.431 103.964 184.755 103.964 183.921C103.964 183.088 103.288 182.412 102.454 182.412Z" fill="#E6E6E6"/>
<path d="M133.907 182.412H131.157C130.323 182.412 129.647 183.088 129.647 183.921C129.647 184.755 130.323 185.431 131.157 185.431H133.907C134.741 185.431 135.417 184.755 135.417 183.921C135.417 183.088 134.741 182.412 133.907 182.412Z" fill="#E6E6E6"/>
<path d="M142.819 182.412H140.069C139.235 182.412 138.559 183.088 138.559 183.921C138.559 184.755 139.235 185.431 140.069 185.431H142.819C143.653 185.431 144.329 184.755 144.329 183.921C144.329 183.088 143.653 182.412 142.819 182.412Z" fill="#E6E6E6"/>
<path d="M125.352 182.663H108.259C107.425 182.663 106.75 183.339 106.75 184.173C106.75 185.007 107.425 185.683 108.259 185.683H125.352C126.186 185.683 126.862 185.007 126.862 184.173C126.862 183.339 126.186 182.663 125.352 182.663Z" fill="#E6E6E6"/>
<path d="M110.842 175.597H108.091C107.258 175.597 106.582 176.273 106.582 177.107C106.582 177.94 107.258 178.616 108.091 178.616H110.842C111.675 178.616 112.351 177.94 112.351 177.107C112.351 176.273 111.675 175.597 110.842 175.597Z" fill="#E6E6E6"/>
<path d="M142.295 175.597H139.545C138.711 175.597 138.035 176.273 138.035 177.107C138.035 177.94 138.711 178.616 139.545 178.616H142.295C143.129 178.616 143.805 177.94 143.805 177.107C143.805 176.273 143.129 175.597 142.295 175.597Z" fill="#E6E6E6"/>
<path d="M151.207 175.597H148.456C147.623 175.597 146.947 176.273 146.947 177.107C146.947 177.94 147.623 178.616 148.456 178.616H151.207C152.04 178.616 152.716 177.94 152.716 177.107C152.716 176.273 152.04 175.597 151.207 175.597Z" fill="#E6E6E6"/>
<path d="M133.739 175.848H116.647C115.813 175.848 115.137 176.524 115.137 177.358C115.137 178.192 115.813 178.868 116.647 178.868H133.739C134.573 178.868 135.249 178.192 135.249 177.358C135.249 176.524 134.573 175.848 133.739 175.848Z" fill="#E6E6E6"/>
<path d="M119.229 168.782H116.479C115.645 168.782 114.969 169.458 114.969 170.292C114.969 171.125 115.645 171.801 116.479 171.801H119.229C120.063 171.801 120.739 171.125 120.739 170.292C120.739 169.458 120.063 168.782 119.229 168.782Z" fill="#E6E6E6"/>
<path d="M150.682 168.782H147.932C147.098 168.782 146.422 169.458 146.422 170.292C146.422 171.125 147.098 171.801 147.932 171.801H150.682C151.516 171.801 152.192 171.125 152.192 170.292C152.192 169.458 151.516 168.782 150.682 168.782Z" fill="#E6E6E6"/>
<path d="M159.594 168.782H156.844C156.01 168.782 155.334 169.458 155.334 170.292C155.334 171.125 156.01 171.801 156.844 171.801H159.594C160.428 171.801 161.104 171.125 161.104 170.292C161.104 169.458 160.428 168.782 159.594 168.782Z" fill="#E6E6E6"/>
<path d="M142.127 169.034H125.034C124.2 169.034 123.525 169.71 123.525 170.543C123.525 171.377 124.2 172.053 125.034 172.053H142.127C142.961 172.053 143.637 171.377 143.637 170.543C143.637 169.71 142.961 169.034 142.127 169.034Z" fill="#E6E6E6"/>
<path d="M217.977 287.677C217.657 287.84 217.332 288.002 217.012 288.159C208.729 292.301 202.103 294.654 193.039 297.234C192.274 288.689 191.535 273.67 190.817 264.36C190.628 261.943 190.439 259.914 190.256 258.483C190.209 257.722 190.054 256.972 189.794 256.255L189.826 258.483L189.905 264.36L190.361 297.967C179.086 300.951 167.504 302.62 155.846 302.942C155.238 302.958 154.64 302.969 154.064 302.979C153.859 302.984 153.66 302.99 153.461 302.99C152.805 302.995 152.155 303 151.5 303C139.214 303.009 126.973 301.525 115.046 298.581C115.303 290.125 115.559 275.274 115.806 264.36C115.858 262.226 115.905 260.239 115.958 258.483C116.057 254.73 116.162 252.025 116.262 251.118C116.174 251.278 116.105 251.449 116.057 251.626C115.572 253.887 115.241 256.178 115.067 258.483C114.883 260.239 114.7 262.226 114.516 264.36C113.541 275.699 112.524 291.116 111.476 297.653C105.235 295.949 99.1117 293.843 93.1437 291.347C89.9984 290.036 86.909 288.622 83.8755 287.106C84.4521 283.331 85.055 279.101 85.6736 274.713C86.1558 271.311 86.6539 267.814 87.1624 264.36C87.9487 259.023 88.756 253.791 89.5738 249.183C90.769 242.452 91.9957 237.042 93.2119 234.558C94.3652 232.199 95.5184 229.871 96.635 227.643C97.023 226.862 97.4109 226.091 97.7883 225.342C97.8774 225.164 97.9666 224.991 98.0557 224.818C98.8577 223.24 99.6336 221.73 100.373 220.315C101.007 219.104 101.61 217.961 102.181 216.907C103.565 214.349 104.74 212.31 105.61 211.02C109.248 205.502 114.664 201.393 120.959 199.377L121.116 199.335L121.226 199.382L131.947 196.09L133.514 195.608L134.568 195.283L138.279 192.457L140.297 190.921L142.19 189.48L145.891 186.665L168.805 188.075L173.266 198.816L183.257 202.47L183.43 202.391L183.582 202.329L183.74 202.37C190.034 204.388 195.449 208.496 199.089 214.013C199.582 214.753 200.179 215.728 200.856 216.907C201.432 217.908 202.061 219.051 202.743 220.315C203.713 222.113 204.771 224.141 205.893 226.338C206.14 226.82 206.391 227.313 206.643 227.811C207.109 228.734 207.583 229.675 208.064 230.636C209.18 232.864 210.333 235.192 211.487 237.556C212.488 239.606 213.5 243.821 214.496 249.183C215.319 253.639 216.137 258.892 216.928 264.36C217.966 271.447 216.86 279.934 217.798 286.456C217.856 286.87 217.919 287.273 217.977 287.677Z" fill="#3F3D56"/>
<path d="M151.822 178.091C166.541 178.091 178.472 166.16 178.472 151.441C178.472 136.723 166.541 124.792 151.822 124.792C137.104 124.792 125.173 136.723 125.173 151.441C125.173 166.16 137.104 178.091 151.822 178.091Z" fill="#A0616A"/>
<path d="M195.77 116.126C195.244 114.896 194.543 113.748 193.689 112.718C189.642 107.775 182.282 105.599 174.728 111.449C173.274 111.125 171.758 111.212 170.351 111.701C169.687 111.942 169.064 112.285 168.506 112.718C167.362 113.61 166.469 114.785 165.916 116.126C165.62 116.834 165.426 117.58 165.339 118.343C163.472 117.373 161.496 116.628 159.452 116.126C154.439 114.878 149.196 114.878 144.182 116.126C142.575 116.532 141.028 117.145 139.579 117.95C137.126 119.365 135.716 121.153 135.464 123.14C131.926 123.339 128.246 125.2 125.504 128.251C125.195 128.592 124.896 128.948 124.618 129.315C122.312 132.332 121.073 136.029 121.095 139.826V140.491H121.761C123.585 140.49 125.392 140.842 127.082 141.529C128.177 141.969 129.214 142.541 130.169 143.233C130.795 143.677 131.385 144.167 131.936 144.701C133.213 145.937 134.295 147.36 135.144 148.921C137.322 152.865 138.077 157.439 137.283 161.874C137.101 162.901 136.834 163.911 136.486 164.894C135.991 166.296 135.339 167.638 134.541 168.894C134.51 168.941 134.484 168.988 134.452 169.035C134.101 169.596 133.766 170.168 133.451 170.744C133.215 171.174 132.995 171.614 132.791 172.055C132.193 173.28 131.688 174.549 131.281 175.85C130.551 178.151 130.121 180.537 130.002 182.948C129.965 183.588 129.954 184.227 129.975 184.867C130.007 186.515 130.187 188.158 130.515 189.773C130.563 189.994 130.61 190.209 130.657 190.429L131.04 192.101L131.947 196.09L132.576 198.837L133.157 201.385L134.017 200.153C134.311 199.734 135.05 198.444 136.041 196.62C136.696 195.43 137.456 194.009 138.279 192.457C139.427 190.282 140.685 187.855 141.917 185.433C142.415 184.453 142.908 183.478 143.385 182.523C144.287 180.715 145.136 178.969 145.865 177.418C146.536 175.986 147.107 174.718 147.532 173.701C147.663 174.367 147.773 175.043 147.857 175.724C147.951 176.416 148.019 177.119 148.056 177.821C148.066 177.926 148.072 178.036 148.077 178.141L148.098 178.571L148.103 178.697L148.659 178.77C151.864 179.113 155.095 179.138 158.304 178.843H158.31C162.562 178.523 166.733 177.512 170.66 175.85C172.891 174.883 174.973 173.605 176.846 172.055C177.721 171.33 178.538 170.538 179.289 169.685C179.478 169.47 179.661 169.255 179.839 169.035C180.877 167.76 181.765 166.371 182.487 164.894C182.97 163.919 183.38 162.91 183.713 161.874C185.726 155.778 185.611 148.171 183.367 139.134C183.973 139.017 184.554 138.793 185.082 138.473C186.728 137.482 187.87 135.517 188.227 133.116L188.793 133.268C190.8 132.333 192.588 130.986 194.041 129.315C194.328 128.975 194.598 128.62 194.848 128.251C197.411 124.476 197.432 119.947 195.77 116.126Z" fill="#2F2E41"/>
<path opacity="0.2" d="M108.157 249.16L112.612 231.97L116.545 246.803L108.157 249.16Z" fill="black"/>
<path d="M226.689 237.96C225.095 259.914 226.747 269.581 217.95 287.682C209.947 291.6 201.61 294.796 193.039 297.234C192.148 297.485 191.255 297.73 190.361 297.967C179.086 300.951 167.504 302.62 155.846 302.942C155.238 302.958 154.64 302.969 154.063 302.979C153.859 302.984 153.66 302.99 153.461 302.99C152.805 302.995 152.155 303 151.5 303C139.214 303.009 126.973 301.525 115.046 298.581C113.85 298.287 112.66 297.978 111.476 297.653C105.235 295.949 99.1116 293.843 93.1437 291.347C89.9984 290.036 86.909 288.622 83.8755 287.106C83.1887 286.76 82.502 286.414 81.8257 286.057C78.3502 279.945 76.3738 272.511 76.3319 263.579C78.7381 248.187 221.374 224.687 226.689 237.96Z" fill="#2F2E41"/>
<path opacity="0.2" d="M226.685 241.72C226.766 240.36 226.857 238.957 226.964 237.494C221.648 224.221 79.0125 247.722 76.6063 263.113C76.6129 264.524 76.6733 265.894 76.7748 267.231C82.6018 252.04 218.107 229.704 226.685 241.72Z" fill="black"/>
<path d="M85.4982 179.363C85.5329 178.888 85.4654 178.411 85.3003 177.964C85.1351 177.517 84.8762 177.11 84.5407 176.772C84.2053 176.433 83.8013 176.17 83.3559 176.001C82.9104 175.832 82.4338 175.76 81.9582 175.79C81.781 175.797 81.6048 175.819 81.4314 175.856L60.5872 180.565C60.1214 180.678 59.6845 180.887 59.3045 181.179C58.9245 181.472 58.6099 181.84 58.3809 182.261C58.0752 182.272 57.7717 182.317 57.4754 182.393C56.1654 182.69 55.027 183.495 54.3106 184.631C53.5943 185.767 53.3587 187.142 53.6556 188.452C53.9525 189.762 54.7577 190.9 55.894 191.616C57.0302 192.333 58.4045 192.568 59.7145 192.271C60.4602 192.098 61.1578 191.761 61.7561 191.284L68.8195 211.173C69.1723 211.796 69.7174 212.289 70.3733 212.576C71.0291 212.864 71.7605 212.932 72.4581 212.77L86.0086 209.707C86.7008 209.545 87.3239 209.168 87.7883 208.63C88.2527 208.091 88.5346 207.419 88.5934 206.711L85.4982 179.363ZM59.4017 190.855C58.4661 191.067 57.485 190.898 56.6736 190.387C55.8621 189.876 55.2864 189.063 55.0728 188.128C54.8592 187.193 55.0251 186.212 55.5342 185.399C56.0432 184.586 56.8538 184.008 57.7882 183.792C57.854 183.776 57.92 183.792 57.9858 183.776C57.9808 184.376 58.1342 184.966 58.4304 185.488L61.0152 189.999C60.5652 190.426 60.0074 190.722 59.4017 190.855Z" fill="#2F2E41"/>
<path d="M81.9583 175.79C82.1559 178.425 77.6446 181.454 71.6021 182.656C66.0534 183.792 61.0812 183.002 59.6816 180.927C59.9629 180.76 60.2685 180.638 60.5873 180.565L81.4314 175.856C81.6048 175.819 81.7811 175.797 81.9583 175.79Z" fill="#3F3D56"/>
<path d="M67.5424 242.665L79.2502 236.811L69.4937 210.468L66.9224 197.184C66.5884 195.458 65.8072 193.85 64.6569 192.52C63.5067 191.191 62.0277 190.186 60.3677 189.608C58.7078 189.029 56.925 188.896 55.1975 189.222C53.47 189.548 51.8584 190.322 50.5236 191.466C48.5457 193.161 47.3038 195.559 47.06 198.152C46.8162 200.746 47.5896 203.333 49.217 205.367L58.7616 217.298L67.5424 242.665Z" fill="#A0616A"/>
<path d="M79.2503 231.933L63.6399 239.738L75.4865 276.857C76.3372 279.523 77.8622 281.924 79.9137 283.826C81.9651 285.729 84.4734 287.069 87.1954 287.717C90.5516 288.517 94.0751 288.226 97.2551 286.888C100.435 285.55 103.106 283.234 104.881 280.275L136.295 226.43C138.521 222.72 139.209 218.286 138.21 214.076C137.211 209.866 134.606 206.213 130.95 203.898C128.984 202.653 126.778 201.836 124.475 201.5C122.173 201.164 119.825 201.316 117.585 201.947C115.345 202.579 113.263 203.674 111.475 205.163C109.687 206.652 108.232 208.501 107.205 210.59L88.0313 251.446L79.2503 231.933Z" fill="#3F3D56"/>
<path d="M74.422 198.387C74.393 198.387 74.3642 198.382 74.3368 198.373L70.9286 197.199C70.8874 197.185 70.8504 197.161 70.8209 197.129C70.7914 197.097 70.7703 197.058 70.7596 197.016C70.7489 196.974 70.7489 196.93 70.7596 196.888C70.7703 196.845 70.7913 196.807 70.8208 196.775L73.3556 194.015C73.3789 193.989 73.4069 193.968 73.4381 193.954C73.4693 193.939 73.5032 193.931 73.5376 193.929C73.5721 193.928 73.6065 193.933 73.6389 193.945C73.6714 193.957 73.7011 193.975 73.7266 193.998C73.752 194.021 73.7725 194.049 73.7871 194.081C73.8016 194.112 73.8098 194.146 73.8112 194.18C73.8126 194.215 73.8072 194.249 73.7952 194.282C73.7833 194.314 73.7651 194.344 73.7416 194.369L71.4776 196.834L74.5072 197.877C74.5659 197.897 74.6155 197.938 74.6472 197.991C74.6789 198.044 74.6907 198.107 74.6805 198.168C74.6703 198.229 74.6387 198.285 74.5914 198.325C74.544 198.365 74.484 198.387 74.422 198.387ZM79.0937 197.431C79.0415 197.431 78.9904 197.415 78.9471 197.386C78.9038 197.357 78.8703 197.315 78.8507 197.267C78.8311 197.219 78.8264 197.165 78.8372 197.114C78.8481 197.063 78.8739 197.017 78.9114 196.98L81.2151 194.753L78.1205 193.478C78.0886 193.465 78.0596 193.445 78.0352 193.421C78.0108 193.397 77.9914 193.368 77.9781 193.336C77.9648 193.304 77.958 193.27 77.9579 193.236C77.9578 193.201 77.9645 193.167 77.9777 193.135C77.9908 193.104 78.0101 193.075 78.0344 193.05C78.0587 193.026 78.0876 193.007 78.1194 192.993C78.1512 192.98 78.1853 192.973 78.2198 192.973C78.2542 192.973 78.2883 192.98 78.3201 192.993L81.7849 194.421C81.8251 194.438 81.8606 194.464 81.8882 194.498C81.9157 194.531 81.9344 194.571 81.9426 194.614C81.9508 194.657 81.9482 194.701 81.935 194.742C81.9219 194.784 81.8986 194.821 81.8673 194.852L79.2759 197.357C79.227 197.404 79.1617 197.431 79.0937 197.431ZM75.1374 199.99C75.1113 199.991 75.0853 199.987 75.0604 199.979C75.0274 199.969 74.9968 199.952 74.9703 199.93C74.9437 199.908 74.9218 199.881 74.9057 199.851C74.8896 199.82 74.8796 199.787 74.8764 199.753C74.8731 199.719 74.8767 199.684 74.8868 199.651L77.306 191.788C77.3267 191.722 77.3728 191.666 77.4342 191.634C77.4956 191.602 77.5673 191.595 77.6336 191.615C77.6999 191.636 77.7554 191.682 77.7879 191.743C77.8205 191.804 77.8274 191.876 77.8072 191.942L75.388 199.806C75.3715 199.859 75.3382 199.906 75.2931 199.939C75.248 199.973 75.1935 199.99 75.1374 199.99Z" fill="#6C63FF"/>
</g>
<defs>
<clipPath id="clip0_570_660">
<rect width="303" height="303" fill="white"/>
</clipPath>
</defs>
</svg>
