<svg width="79" height="49" viewBox="0 0 79 49" fill="none" xmlns="http://www.w3.org/2000/svg">
<path d="M70.1451 17.94C71.8847 17.94 73.2998 19.2788 73.2998 20.9366C73.2998 22.5854 71.8847 23.9304 70.1451 23.9304C68.4084 23.9304 66.99 22.5854 66.99 20.9366C66.99 19.2788 68.4084 17.94 70.1451 17.94ZM78.0118 27.4594H43.7522V24.461H57.4126V17.4972H47.9099V15.0972H57.4123V12.2116H49.1568V12.8472H43.7525V3.7916H49.1568V4.88442C50.7845 4.69473 53.9725 4.31754 57.4435 3.96067V1.38035H63.5404V3.38285C66.5848 3.13066 69.3107 2.97285 70.8182 3.03535C75.7195 3.2591 78.866 3.91535 78.998 7.01348C79.1152 10.1041 74.3094 12.9644 74.3094 12.9644L72.8252 11.6088V12.2116H63.5703V15.0969H74.1991V17.4969H63.5703V24.461H78.0118V27.4594ZM70.8561 9.80941L70.8182 9.77348C70.8182 9.77348 75.3351 7.40004 71.9463 5.79848C69.1046 4.45473 53.7282 6.75348 49.1568 7.75379V9.80941H70.8561ZM6.19558 7.05192C8.01093 7.05192 9.48231 5.64879 9.48231 3.92692C9.48231 2.19848 8.01093 0.803477 6.19558 0.803477C5.76297 0.802408 5.33441 0.882434 4.93446 1.03896C4.53451 1.1955 4.17105 1.42545 3.86492 1.71564C3.5588 2.00583 3.31603 2.35054 3.15055 2.73001C2.98508 3.10947 2.90014 3.51622 2.90062 3.92692C2.90062 5.64879 4.36969 7.05192 6.19558 7.05192ZM17.4182 4.36567C18.2477 3.00192 18.6417 2.11723 18.6417 2.11723L13.8161 0.82879C13.8161 0.82879 11.8724 6.85816 8.40264 9.66566C8.40264 9.66566 11.7585 11.5085 11.7256 11.4569C12.6417 10.5916 13.5013 9.67393 14.2997 8.7091C15.0716 8.39129 15.8089 8.09035 16.536 7.81035C15.6423 9.33223 14.2009 11.6197 12.7578 13.0632L14.7914 14.746C14.7914 14.746 16.1733 13.4857 17.6855 11.9625H19.4123V14.7729H12.6917V17.0241H19.4119V22.41C19.3297 22.41 19.2405 22.41 19.1545 22.4038C18.4172 22.3707 17.2615 22.255 16.8096 21.5757C16.2572 20.7519 16.6647 19.2332 16.6957 18.3079H12.0501L11.8869 18.3891C11.8869 18.3891 10.1851 25.621 16.7882 25.4582C22.9742 25.621 26.5131 23.8238 28.2185 22.59L28.8979 24.9791L32.7106 23.4713L30.1267 17.4766L27.0292 18.3891L27.6098 20.4435C26.8149 21.0088 25.9048 21.43 24.915 21.7354V17.0238H31.4818V14.7725H24.915V11.9622H31.5082V9.71223H19.7997C20.644 8.74004 21.3103 7.84285 21.4768 7.27473L19.4399 6.75004C28.1967 3.77535 33.0701 4.28566 33.0273 9.16566V22.0182C33.0273 22.0182 33.5434 26.4319 28.2181 26.1141L25.3356 25.5266L24.6543 28.1225C24.6543 28.1225 37.104 31.5013 38.1215 22.4207C39.1406 13.34 37.869 7.55317 37.869 7.55317C37.869 7.55317 36.7334 -0.829335 17.4182 4.36567ZM0.191575 24.9794L5.41446 28.0747C9.02443 20.6332 8.79336 21.6194 9.70021 18.9497C10.6324 16.2194 10.8368 14.1372 9.25189 12.6279C7.22027 10.6913 6.99907 10.5113 3.97963 8.38348L1.80614 11.5507L5.81012 13.9182C5.81012 13.9182 8.48987 15.216 7.21698 17.6379C6.02638 19.9425 0.191575 24.9794 0.191575 24.9794ZM65.8274 46.3807C65.8274 46.3807 65.7662 48.015 63.6207 48.015C61.6812 48.015 61.5262 46.7297 61.5262 46.7297C60.7082 47.666 59.4831 48.1513 58.0054 48.1513C55.5018 48.1513 53.7391 46.5466 53.7391 44.1213C53.7391 41.665 55.5745 40.1213 58.3418 40.1213C59.6032 40.1213 60.7283 40.5782 61.3893 41.3829C61.411 41.1622 61.434 40.9572 61.434 40.7679C61.434 39.011 60.4162 38.2282 58.1094 38.2282C56.9962 38.2282 55.9175 38.38 54.773 38.6682C55.1374 37.9838 55.4063 37.4829 55.751 37.2388C56.1466 36.935 57.1644 36.7988 58.8514 36.7988C63.0285 36.7988 64.5855 38.1297 64.5855 41.261V45.0185C64.5855 46.0063 64.6944 46.3807 65.8274 46.3807ZM61.4587 44.0525C61.4587 42.5479 60.6177 41.7182 59.3593 41.7182C58.0285 41.7182 57.1644 42.601 57.1644 44.0916C57.1644 45.551 58.0778 46.4713 59.3148 46.4713C60.5927 46.4713 61.4587 45.6119 61.4587 44.0525ZM78.8078 42.4869C78.8078 46.0894 76.5286 48.1966 72.9532 48.1966C69.3465 48.1966 67.1052 46.0894 67.1052 42.4869C67.1052 38.8669 69.3465 36.7832 72.9532 36.7832C76.5286 36.7832 78.8078 38.8829 78.8078 42.4869ZM75.2307 42.4869C75.2307 39.7704 74.4506 38.4254 72.9529 38.4254C71.3946 38.4254 70.6691 39.7704 70.6691 42.4869C70.6691 45.1938 71.3946 46.5463 72.9532 46.5463C74.4904 46.5463 75.2307 45.1938 75.2307 42.4869ZM51.7569 42.3491C51.7569 46.0063 49.6061 48.1513 46.5669 48.1513C45.1735 48.1513 43.9151 47.641 43.1218 46.6825C43.1218 46.6825 42.7657 48.015 40.9434 48.015C38.6774 48.015 38.7564 46.3807 38.7564 46.3807C40.0296 46.4322 39.9934 45.7104 39.9934 45.0182V35.9988C39.9934 34.8888 39.7492 34.5004 38.5882 34.4785C38.633 34.1435 38.844 32.7985 40.8229 32.7985C43.5076 32.7985 43.3295 35.6575 43.3295 35.6575V38.1138C44.0833 37.2763 45.1452 36.8819 46.5899 36.8819C49.7578 36.8819 51.7569 38.8966 51.7569 42.3491ZM48.1568 42.601C48.1568 39.7938 47.2627 38.3644 45.6498 38.3644C44.2038 38.3644 43.214 39.6044 43.214 41.8166V42.9422C43.214 45.1938 44.2515 46.4322 45.7259 46.4322C47.296 46.4322 48.1568 45.1404 48.1568 42.601ZM37.4835 42.4869C37.4835 46.0894 35.2189 48.1966 31.6224 48.1966C28.0223 48.1966 25.7876 46.0894 25.7876 42.4869C25.7876 38.8669 28.0223 36.7832 31.6224 36.7832C35.2192 36.7832 37.4835 38.8829 37.4835 42.4869ZM33.918 42.4869C33.918 39.7704 33.1412 38.4254 31.6224 38.4254C30.0852 38.4254 29.3597 39.7704 29.3597 42.4869C29.3597 45.1938 30.0855 46.5463 31.6224 46.5463C33.1662 46.5463 33.918 45.1938 33.918 42.4869ZM14.2026 33.9994C13.3204 34.2438 11.6018 34.3032 9.0952 34.3032C6.05041 34.3032 4.029 34.1813 2.99147 34.1813C1.28145 34.1813 0.603692 34.6007 0 36.2413C0.989475 35.9235 2.21496 35.9016 3.73703 35.9016C4.89306 35.9016 5.08925 36.0363 5.08925 36.8207V45.8938C5.08925 46.7754 5.477 48.0154 7.47735 48.0154C9.81575 48.0154 10.2246 46.3716 10.2246 46.3716C9.05538 46.3497 8.82628 45.9613 8.82628 44.8513V36.85C8.82628 36.0141 9.15939 35.9766 10.3767 35.9766C10.7888 35.9766 11.0659 35.9985 11.2341 35.9985C13.0281 35.9985 13.4998 35.6716 14.2026 33.9994ZM24.5065 46.3807C24.5065 46.3807 24.4472 48.015 22.3129 48.015C20.4827 48.015 20.2052 46.7297 20.2052 46.7297C19.3889 47.666 18.1621 48.1513 16.6976 48.1513C14.1779 48.1513 12.4198 46.5466 12.4198 44.1213C12.4198 41.665 14.2532 40.1213 17.0258 40.1213C18.2908 40.1213 19.4202 40.5782 20.0732 41.3829C20.0851 41.1622 20.1081 40.9572 20.1081 40.7679C20.1081 39.011 19.1038 38.2282 16.7934 38.2282C15.6802 38.2282 14.5982 38.38 13.4524 38.6682C13.8247 37.9838 14.0854 37.4829 14.4218 37.2388C14.8474 36.935 15.8467 36.7988 17.5387 36.7988C21.7026 36.7988 23.2859 38.1297 23.2859 41.261V45.0185C23.2859 46.0063 23.3768 46.3807 24.5065 46.3807ZM20.1411 44.0525C20.1411 42.5479 19.3 41.7182 18.0416 41.7182C16.7207 41.7182 15.8467 42.601 15.8467 44.0916C15.8467 45.551 16.7651 46.4713 17.9906 46.4713C19.2721 46.4713 20.1411 45.6119 20.1411 44.0525Z" fill="#8D89CD"/>
</svg>
