<svg width="77" height="51" viewBox="0 0 77 51" fill="none" xmlns="http://www.w3.org/2000/svg">
<path d="M64.0383 50.5C63.766 50.5 63.5049 50.3946 63.3124 50.2071C63.1198 50.0196 63.0117 49.7652 63.0117 49.5V1.5C63.0117 1.23478 63.1198 0.980429 63.3124 0.792893C63.5049 0.605357 63.766 0.5 64.0383 0.5H75.9412C76.0788 0.495813 76.2157 0.518583 76.344 0.56696C76.4723 0.615337 76.5893 0.688332 76.688 0.781611C76.7868 0.87489 76.8653 0.98655 76.9189 1.10996C76.9725 1.23337 77.0001 1.36601 77 1.5V49.5C77.0001 49.634 76.9725 49.7666 76.9189 49.89C76.8653 50.0135 76.7868 50.1251 76.688 50.2184C76.5893 50.3117 76.4723 50.3847 76.344 50.433C76.2157 50.4814 76.0788 50.5042 75.9412 50.5H64.0383ZM44.0825 50.5C44.0825 50.5 43.12 50.2188 43.12 49.5V20.0312C43.1503 19.1131 42.9897 18.1985 42.6478 17.3423C42.3058 16.4862 41.7897 15.7063 41.1303 15.0494C40.471 14.3926 39.682 13.8725 38.811 13.5203C37.9399 13.1681 37.0047 12.9911 36.0617 13H13.7958C12.5125 13 12.8333 13.9375 12.8333 13.9375V49.5C12.8333 50.3438 11.8708 50.5 11.8708 50.5H1.05875C0.921251 50.5042 0.78429 50.4814 0.656002 50.433C0.527714 50.3847 0.410716 50.3117 0.311957 50.2184C0.213198 50.1251 0.134692 50.0135 0.0811027 49.89C0.0275132 49.7666 -6.70656e-05 49.634 1.22462e-07 49.5V1.5C-6.70656e-05 1.36601 0.0275132 1.23337 0.0811027 1.10996C0.134692 0.98655 0.213198 0.87489 0.311957 0.781611C0.410716 0.688332 0.527714 0.615337 0.656002 0.56696C0.78429 0.518583 0.921251 0.495813 1.05875 0.5H42.3179C45.9375 0.524703 49.4007 1.94047 51.9542 4.43935C54.5077 6.93822 55.945 10.3181 55.9533 13.8438L55.9854 49.5C55.9854 49.7652 55.8772 50.0196 55.6847 50.2071C55.4922 50.3946 55.231 50.5 54.9587 50.5H44.0825ZM21.945 50.5C21.6897 50.5 21.4449 50.4012 21.2644 50.2254C21.0839 50.0496 20.9825 49.8111 20.9825 49.5625V21.4375C20.9825 21.1889 21.0839 20.9504 21.2644 20.7746C21.4449 20.5988 21.6897 20.5 21.945 20.5H34.0404C34.2901 20.5081 34.5267 20.6105 34.7004 20.7854C34.874 20.9603 34.971 21.1942 34.9708 21.4375V49.5625C34.9708 49.8111 34.8694 50.0496 34.6889 50.2254C34.5084 50.4012 34.2636 50.5 34.0083 50.5H21.945Z" fill="#8D89CD"/>
</svg>
